<svg xmlns="http://www.w3.org/2000/svg" width="800" height="600" viewBox="0 0 800 600">
  <defs>
    <linearGradient id="bg" x1="0%" y1="0%" x2="100%" y2="100%">
      <stop offset="0%" style="stop-color:#0d0d1a"/>
      <stop offset="100%" style="stop-color:#1a0533"/>
    </linearGradient>
  </defs>
  <rect width="800" height="600" fill="url(#bg)"/>
  <g opacity="0.12">
    <line x1="0" y1="100" x2="800" y2="100" stroke="#00BCD4" stroke-width="0.5"/>
    <line x1="0" y1="200" x2="800" y2="200" stroke="#00BCD4" stroke-width="0.5"/>
    <line x1="0" y1="300" x2="800" y2="300" stroke="#00BCD4" stroke-width="0.5"/>
    <line x1="0" y1="400" x2="800" y2="400" stroke="#00BCD4" stroke-width="0.5"/>
    <line x1="0" y1="500" x2="800" y2="500" stroke="#00BCD4" stroke-width="0.5"/>
    <line x1="100" y1="0" x2="100" y2="600" stroke="#00BCD4" stroke-width="0.5"/>
    <line x1="200" y1="0" x2="200" y2="600" stroke="#00BCD4" stroke-width="0.5"/>
    <line x1="300" y1="0" x2="300" y2="600" stroke="#00BCD4" stroke-width="0.5"/>
    <line x1="400" y1="0" x2="400" y2="600" stroke="#00BCD4" stroke-width="0.5"/>
    <line x1="500" y1="0" x2="500" y2="600" stroke="#00BCD4" stroke-width="0.5"/>
    <line x1="600" y1="0" x2="600" y2="600" stroke="#00BCD4" stroke-width="0.5"/>
    <line x1="700" y1="0" x2="700" y2="600" stroke="#00BCD4" stroke-width="0.5"/>
  </g>
  <circle cx="400" cy="260" r="120" fill="rgba(0,188,212,0.06)"/>
  <text x="400" y="280" text-anchor="middle" font-size="72" fill="white" opacity="0.9">??</text>
  <text x="400" y="380" text-anchor="middle" font-size="18" fill="rgba(255,255,255,0.5)" font-family="system-ui,sans-serif">Brand Identity</text>
</svg>